<?xml version="1.0" standalone="no"?>
<!DOCTYPE svg PUBLIC "-//W3C//DTD SVG 20010904//EN"
 "http://www.w3.org/TR/2001/REC-SVG-20010904/DTD/svg10.dtd">
<svg version="1.0" xmlns="http://www.w3.org/2000/svg"
 width="64.000000pt" height="64.000000pt" viewBox="0 0 64.000000 64.000000"
 preserveAspectRatio="xMidYMid meet">

<g transform="translate(0.000000,64.000000) scale(0.100000,-0.100000)"
fill="#000000" stroke="none">
<path d="M376 587 c-38 -12 -71 -28 -74 -35 -2 -7 -21 -12 -47 -12 -38 0 -44
3 -47 23 -3 21 -8 22 -83 22 l-80 0 -3 -244 c-2 -237 -3 -244 -24 -261 -19
-15 -20 -20 -9 -34 18 -21 86 -22 77 -1 -4 11 1 15 19 15 18 0 23 -4 19 -15
-9 -23 487 -23 506 0 19 23 -5 45 -49 46 -34 0 -34 1 -11 10 13 6 26 11 28 13
6 7 -82 296 -90 296 -13 0 -9 -19 17 -105 14 -44 25 -87 25 -96 0 -11 -18 -21
-57 -32 -32 -8 -58 -15 -59 -14 0 1 -15 54 -33 117 -18 63 -34 122 -37 131 -6
23 107 55 119 33 17 -31 24 -2 11 43 -8 27 -19 65 -25 86 -5 20 -13 37 -17 36
-4 0 -38 -11 -76 -22z m76 -22 c0 -8 1 -20 2 -26 1 -6 -25 -19 -57 -29 l-57
-18 -6 25 c-8 29 -3 35 44 49 52 17 72 16 74 -1z m-282 -30 c0 -24 -3 -25 -55
-25 -52 0 -55 1 -55 25 0 24 3 25 55 25 52 0 55 -1 55 -25z m138 -47 c3 -27 2
-28 -47 -28 -50 0 -51 1 -51 31 0 30 1 30 48 27 43 -3 47 -5 50 -30z m160 6
c-2 -10 -22 -22 -48 -30 -57 -17 -70 -17 -70 0 0 7 23 20 53 28 69 21 69 21
65 2z m-278 -19 c0 -12 -14 -15 -65 -15 -51 0 -65 3 -65 15 0 12 14 15 65 15
51 0 65 -3 65 -15z m120 -50 c0 -11 -12 -15 -50 -15 -38 0 -50 4 -50 15 0 11
12 15 50 15 38 0 50 -4 50 -15z m75 -156 c25 -86 45 -161 45 -168 0 -7 -19
-11 -50 -11 l-50 0 0 99 c0 56 -4 103 -10 106 -6 4 -10 -20 -10 -64 l0 -71
-49 0 c-46 0 -49 1 -53 30 -2 16 -2 68 0 115 l5 85 48 0 49 0 0 -35 c0 -19 5
-35 10 -35 6 0 10 28 11 63 0 34 2 58 4 52 3 -5 25 -80 50 -166z m-215 26 l0
-135 -55 0 -55 0 0 135 0 135 55 0 55 0 0 -135z"/>
<path d="M250 275 c0 -43 4 -75 10 -75 6 0 10 32 10 75 0 43 -4 75 -10 75 -6
0 -10 -32 -10 -75z"/>
<path d="M90 300 c0 -60 4 -100 10 -100 6 0 10 40 10 100 0 60 -4 100 -10 100
-6 0 -10 -40 -10 -100z"/>
<path d="M132 298 c2 -40 8 -73 13 -73 6 0 11 33 13 73 2 60 0 72 -13 72 -13
0 -15 -12 -13 -72z"/>
<path d="M403 387 c3 -9 16 -52 28 -97 12 -44 26 -80 31 -80 12 0 10 17 -16
104 -12 44 -29 82 -36 84 -9 3 -11 -1 -7 -11z"/>
<path d="M457 382 c-9 -13 27 -125 40 -129 8 -3 6 18 -7 63 -21 72 -25 80 -33
66z"/>
</g>
</svg>
