<?xml version="1.0" standalone="no"?>
<!DOCTYPE svg PUBLIC "-//W3C//DTD SVG 20010904//EN"
 "http://www.w3.org/TR/2001/REC-SVG-20010904/DTD/svg10.dtd">
<svg version="1.0" xmlns="http://www.w3.org/2000/svg"
 width="64.000000pt" height="64.000000pt" viewBox="0 0 64.000000 64.000000"
 preserveAspectRatio="xMidYMid meet">

<g transform="translate(0.000000,64.000000) scale(0.100000,-0.100000)"
fill="#000000" stroke="none">
<path d="M178 540 c2 -22 8 -40 13 -40 5 0 9 18 9 40 0 26 -5 40 -13 40 -9 0
-11 -12 -9 -40z"/>
<path d="M180 306 l0 -144 -60 -7 -60 -7 0 -34 0 -34 136 0 135 0 -3 38 c-2
22 -8 37 -15 36 -7 -1 -33 -2 -57 -2 -38 -2 -45 -6 -49 -24 -2 -13 -5 55 -6
150 0 107 -5 172 -11 172 -6 0 -10 -55 -10 -144z"/>
<path d="M492 171 c-52 -16 -52 -16 -46 -51 4 -19 8 -37 10 -39 2 -2 33 4 69
14 67 18 72 23 59 73 -7 25 -19 26 -92 3z"/>
<path d="M600 65 c0 -10 7 -15 18 -13 21 4 19 22 -2 26 -10 2 -16 -3 -16 -13z"/>
</g>
</svg>
